<?xml version="1.0" encoding="iso-8859-1"?>
<!-- Generator: Adobe Illustrator 18.1.1, SVG Export Plug-In . SVG Version: 6.00 Build 0)  -->
<svg xmlns="http://www.w3.org/2000/svg" xmlns:xlink="http://www.w3.org/1999/xlink" version="1.1" id="Capa_1" x="0px" y="0px" viewBox="0 0 19.653 19.653" style="enable-background:new 0 0 19.653 19.653;" xml:space="preserve" width="512px" height="512px">
<g>
    <path d="M0.278,9.439l7.326-6.061c0,0,0.868-0.919,0.868,0.078c0,0.999,0,3.416,0,3.416s0.589,0,1.489,0    c2.579,0,7.265,0,9.173,0c0,0,0.519-0.137,0.519,0.65c0,0.789,0,4.244,0,4.807s-0.434,0.55-0.434,0.55c-1.855,0-6.703,0-9.195,0    c-0.807,0-1.333,0-1.333,0s0,1.936,0,3.154c0,1.214-0.912,0.298-0.912,0.298s-6.843-5.155-7.562-5.874    C-0.305,9.936,0.278,9.439,0.278,9.439z" fill="#BBC4B3"/>
</g>
</svg>
